# xmcd
#
# Track frame offsets:
#	150
#	13653
#	32123
#	47048
#	62009
#	80112
#	96076
#	108711
#	124073
#	146577
#	163556
#	180398
#	197797
#	212403
#	231494
#	246249
#	264263
#	280974
#
# Disc length: 4040
#
# Revision: 2
# Processed by: cddbd v1.5.1PL0 Copyright (c) Steve Scherf et al.
# Submitted via: CDex 1.50beta8
# Normalized: r1:TRMNUM
#
DISCID=040fc612
DTITLE=SarahBrightman - Classics
DYEAR=2001
DGENRE=New Age
TTITLE0=Ave Maria
TTITLE1=La Wally
TTITLE2=Winter Light
TTITLE3=Anytime, Anywhere
TTITLE4=Alhambra
TTITLE5=Lascia Ch'io Pianga
TTITLE6=Dans La Nuit
TTITLE7=Serenade(How Far Is This Place)
TTITLE8=O Mio Babbino Caro
TTITLE9=La Luna
TTITLE10=Pie Jesu
TTITLE11=Nessun Dorma
TTITLE12=Bailero
TTITLE13=Time to Say Goodbye(Solo version)
TTITLE14=In Paradaisum
TTITLE15=Eden
TTITLE16=Dust in the Wind
TTITLE17=Only An Ocean Away
EXTD=YEAR: 2001
EXTT0=
EXTT1=
EXTT2=
EXTT3=
EXTT4=
EXTT5=
EXTT6=
EXTT7=
EXTT8=
EXTT9=
EXTT10=
EXTT11=
EXTT12=
EXTT13=
EXTT14=
EXTT15=
EXTT16=
EXTT17=
PLAYORDER=
